<?xml version="1.0" encoding="iso-8859-1"?>
<!-- Generator: Adobe Illustrator 18.1.1, SVG Export Plug-In . SVG Version: 6.00 Build 0)  -->
<svg version="1.1" id="Capa_1" xmlns="http://www.w3.org/2000/svg" xmlns:xlink="http://www.w3.org/1999/xlink" x="0px" y="0px"
	 viewBox="0 0 389.122 389.122" style="enable-background:new 0 0 389.122 389.122;" xml:space="preserve">
<g>
	<g id="Layer_5_40_">
		<g>
			<g>
				<g>
					<path d="M162.132,299.289c-57.748,0-104.729-46.98-104.729-104.728S104.384,89.832,162.132,89.832
						S266.86,136.814,266.86,194.561C266.86,252.309,219.879,299.289,162.132,299.289z M162.132,113.833
						c-44.514,0-80.729,36.215-80.729,80.729c0,44.513,36.215,80.728,80.729,80.728s80.729-36.214,80.729-80.728
						C242.86,150.048,206.645,113.833,162.132,113.833z"/>
				</g>
				<g>
					<path d="M162.132,240.624c-25.399,0-46.063-20.664-46.063-46.063c0-25.399,20.664-46.063,46.063-46.063
						s46.063,20.664,46.063,46.063C208.195,219.96,187.531,240.624,162.132,240.624z M162.132,172.498
						c-12.166,0-22.063,9.897-22.063,22.063c0,12.166,9.897,22.063,22.063,22.063s22.063-9.897,22.063-22.063
						S174.298,172.498,162.132,172.498z"/>
				</g>
				<g>
					<g>
						<path d="M162.132,356.693C72.732,356.693,0,283.961,0,194.561c0-89.4,72.732-162.132,162.132-162.132
							s162.132,72.732,162.132,162.131C324.264,283.961,251.532,356.693,162.132,356.693z M162.132,56.429
							C85.966,56.429,24,118.395,24,194.561s61.966,138.131,138.132,138.131s138.132-61.964,138.132-138.131
							C300.264,118.395,238.298,56.429,162.132,56.429z"/>
					</g>
				</g>
			</g>
			<g>
				<path d="M385.514,122.023c1.984-0.99,3.608-3.681,3.608-5.979V70.992c0-2.299-1.527-3.186-3.394-1.97L367.03,82.941
					c-1.866,1.216-4.921,1.216-6.787,0l-20.031-13.919c-1.866-1.215-3.394-0.329-3.394,1.97v45.052c0,2.298,1.628,4.982,3.617,5.961
					l13.277,7.191c1.99,0.98,3.617,3.662,3.617,5.961v50.109c0,2.299-1.159,4.18-2.575,4.18s-2.575,1.882-2.575,4.181v56.208
					c0,2.299,1.159,4.18,2.575,4.18s2.575,1.882,2.575,4.181v23.226c0,2.299,3.551,27.123,6.059,27.175
					c2.585,0.053,6.556-24.876,6.556-27.175v-23.226c0-2.299,1.159-4.181,2.575-4.181s2.575-1.88,2.575-4.18v-56.208
					c0-2.299-1.159-4.181-2.575-4.181s-2.575-1.881-2.575-4.18v-49.974c0-2.299,1.624-4.99,3.608-5.979L385.514,122.023z"/>
			</g>
		</g>
	</g>
</g>
<g>
</g>
<g>
</g>
<g>
</g>
<g>
</g>
<g>
</g>
<g>
</g>
<g>
</g>
<g>
</g>
<g>
</g>
<g>
</g>
<g>
</g>
<g>
</g>
<g>
</g>
<g>
</g>
<g>
</g>
</svg>
